<?xml version="1.0" encoding="UTF-8"?>
<svg width="4276px" height="204px" viewBox="0 0 4276 204" version="1.1" xmlns="http://www.w3.org/2000/svg" xmlns:xlink="http://www.w3.org/1999/xlink">
    <!-- Generator: Sketch 63.1 (92452) - https://sketch.com -->
    <title>EivorEivorEivorEivorEivor</title>
    <desc>Created with Sketch.</desc>
    <g id="Page-1" stroke="none" stroke-width="1" fill="none" fill-rule="evenodd">
        <path d="M128.796482,200.533107 L128.796482,197.162103 L26.542694,197.162103 L26.542694,101.369406 L118.68347,101.369406 L118.68347,97.9984017 L26.542694,97.9984017 L26.542694,7.26221073 L128.796482,7.26221073 L128.796482,3.89120673 L0.417413039,3.89120673 L0.417413039,200.533107 L128.796482,200.533107 Z M197.621147,200.533107 L197.621147,3.89120673 L173.743202,3.89120673 L173.743202,200.533107 L197.621147,200.533107 Z M326.281133,200.533107 L418.140992,3.89120673 L372.913355,3.89120673 C381.340865,6.41945973 387.801956,9.79046373 392.296628,14.5660527 C401.005055,24.1172307 399.319553,33.9493257 395.948549,43.7814207 L338.079647,168.227652 L258.299219,3.89120673 L225.712847,3.89120673 L326.281133,200.533107 Z M511.124519,203.904111 C538.935302,203.904111 563.094164,193.791099 584.162939,173.845992 C605.231714,153.900885 615.625643,130.02294 615.625643,102.212157 C615.625643,83.9525517 610.850054,67.0975317 601.017959,51.3661797 C591.185864,35.6348277 578.263682,23.2744797 562.251413,14.2851357 C546.239144,5.29579173 529.103207,0.801119731 511.124519,0.801119731 C483.313736,0.801119731 459.154874,10.6332147 438.367016,30.5783217 C417.298241,50.5234287 406.904312,74.4013737 406.904312,102.212157 C406.904312,120.471762 411.679901,137.607699 421.511996,153.058134 C431.063174,168.789486 443.985356,181.149834 459.997625,190.139178 C476.009894,199.409439 492.864914,203.904111 511.124519,203.904111 Z M510.562685,201.094941 C490.617578,201.094941 473.200724,191.543763 458.312123,172.16049 C443.423522,152.777217 435.838763,129.742023 435.838763,102.493074 C435.838763,75.2441247 443.423522,51.9280137 458.312123,32.5447407 C473.200724,13.1614677 490.617578,3.61028973 510.562685,3.61028973 C530.788709,3.61028973 548.767397,13.4423847 564.217832,32.8256577 C579.668267,52.2089307 587.533943,75.5250417 587.533943,102.493074 C587.533943,129.461106 579.668267,152.4963 564.217832,171.879573 C548.767397,191.262846 530.788709,201.094941 510.562685,201.094941 Z M664.224284,200.533107 L664.224284,6.70037673 L698.496158,6.98129373 C713.946593,7.26221073 726.587858,10.9141317 736.70087,18.4988907 C746.532965,26.0836497 751.589471,37.8821637 751.589471,54.4562667 C751.589471,71.3112867 747.93755,82.8288837 740.633708,88.7281407 C733.329866,94.9083147 722.093186,97.9984017 706.642751,97.9984017 L674.618213,97.9984017 L759.17423,200.533107 L787.827764,200.533107 L701.867162,100.807572 L717.317597,100.807572 C735.015368,100.807572 749.903969,96.0319827 761.421566,86.7617217 C772.939163,77.4914607 778.83842,66.2547807 778.83842,53.6135157 C778.83842,39.2867487 772.096412,27.4882347 758.331479,17.9370567 C744.566546,8.66679573 727.149692,3.89120673 705.519083,3.89120673 L638.941754,3.89120673 L638.941754,200.533107 L664.224284,200.533107 Z M1000.76285,200.533107 L1000.76285,197.162103 L898.509062,197.162103 L898.509062,101.369406 L990.649838,101.369406 L990.649838,97.9984017 L898.509062,97.9984017 L898.509062,7.26221073 L1000.76285,7.26221073 L1000.76285,3.89120673 L872.383781,3.89120673 L872.383781,200.533107 L1000.76285,200.533107 Z M1069.58752,200.533107 L1069.58752,3.89120673 L1045.70957,3.89120673 L1045.70957,200.533107 L1069.58752,200.533107 Z M1198.2475,200.533107 L1290.10736,3.89120673 L1244.87972,3.89120673 C1253.30723,6.41945973 1259.76832,9.79046373 1264.263,14.5660527 C1272.97142,24.1172307 1271.28592,33.9493257 1267.91492,43.7814207 L1210.04602,168.227652 L1130.26559,3.89120673 L1097.67922,3.89120673 L1198.2475,200.533107 Z M1383.09089,203.904111 C1410.90167,203.904111 1435.06053,193.791099 1456.12931,173.845992 C1477.19808,153.900885 1487.59201,130.02294 1487.59201,102.212157 C1487.59201,83.9525517 1482.81642,67.0975317 1472.98433,51.3661797 C1463.15223,35.6348277 1450.23005,23.2744797 1434.21778,14.2851357 C1418.20551,5.29579173 1401.06958,0.801119731 1383.09089,0.801119731 C1355.2801,0.801119731 1331.12124,10.6332147 1310.33338,30.5783217 C1289.26461,50.5234287 1278.87068,74.4013737 1278.87068,102.212157 C1278.87068,120.471762 1283.64627,137.607699 1293.47836,153.058134 C1303.02954,168.789486 1315.95172,181.149834 1331.96399,190.139178 C1347.97626,199.409439 1364.83128,203.904111 1383.09089,203.904111 Z M1382.52905,201.094941 C1362.58395,201.094941 1345.16709,191.543763 1330.27849,172.16049 C1315.38989,152.777217 1307.80513,129.742023 1307.80513,102.493074 C1307.80513,75.2441247 1315.38989,51.9280137 1330.27849,32.5447407 C1345.16709,13.1614677 1362.58395,3.61028973 1382.52905,3.61028973 C1402.75508,3.61028973 1420.73377,13.4423847 1436.1842,32.8256577 C1451.63464,52.2089307 1459.50031,75.5250417 1459.50031,102.493074 C1459.50031,129.461106 1451.63464,152.4963 1436.1842,171.879573 C1420.73377,191.262846 1402.75508,201.094941 1382.52905,201.094941 Z M1536.19065,200.533107 L1536.19065,6.70037673 L1570.46253,6.98129373 C1585.91296,7.26221073 1598.55423,10.9141317 1608.66724,18.4988907 C1618.49933,26.0836497 1623.55584,37.8821637 1623.55584,54.4562667 C1623.55584,71.3112867 1619.90392,82.8288837 1612.60008,88.7281407 C1605.29623,94.9083147 1594.05955,97.9984017 1578.60912,97.9984017 L1546.58458,97.9984017 L1631.1406,200.533107 L1659.79413,200.533107 L1573.83353,100.807572 L1589.28397,100.807572 C1606.98174,100.807572 1621.87034,96.0319827 1633.38793,86.7617217 C1644.90553,77.4914607 1650.80479,66.2547807 1650.80479,53.6135157 C1650.80479,39.2867487 1644.06278,27.4882347 1630.29785,17.9370567 C1616.53291,8.66679573 1599.11606,3.89120673 1577.48545,3.89120673 L1510.90812,3.89120673 L1510.90812,200.533107 L1536.19065,200.533107 Z M1872.72922,200.533107 L1872.72922,197.162103 L1770.47543,197.162103 L1770.47543,101.369406 L1862.61621,101.369406 L1862.61621,97.9984017 L1770.47543,97.9984017 L1770.47543,7.26221073 L1872.72922,7.26221073 L1872.72922,3.89120673 L1744.35015,3.89120673 L1744.35015,200.533107 L1872.72922,200.533107 Z M1941.55388,200.533107 L1941.55388,3.89120673 L1917.67594,3.89120673 L1917.67594,200.533107 L1941.55388,200.533107 Z M2070.21387,200.533107 L2162.07373,3.89120673 L2116.84609,3.89120673 C2125.2736,6.41945973 2131.73469,9.79046373 2136.22936,14.5660527 C2144.93779,24.1172307 2143.25229,33.9493257 2139.88129,43.7814207 L2082.01238,168.227652 L2002.23196,3.89120673 L1969.64558,3.89120673 L2070.21387,200.533107 Z M2255.05726,203.904111 C2282.86804,203.904111 2307.0269,193.791099 2328.09568,173.845992 C2349.16445,153.900885 2359.55838,130.02294 2359.55838,102.212157 C2359.55838,83.9525517 2354.78279,67.0975317 2344.9507,51.3661797 C2335.1186,35.6348277 2322.19642,23.2744797 2306.18415,14.2851357 C2290.17188,5.29579173 2273.03594,0.801119731 2255.05726,0.801119731 C2227.24647,0.801119731 2203.08761,10.6332147 2182.29975,30.5783217 C2161.23098,50.5234287 2150.83705,74.4013737 2150.83705,102.212157 C2150.83705,120.471762 2155.61264,137.607699 2165.44473,153.058134 C2174.99591,168.789486 2187.91809,181.149834 2203.93036,190.139178 C2219.94263,199.409439 2236.79765,203.904111 2255.05726,203.904111 Z M2254.49542,201.094941 C2234.55031,201.094941 2217.13346,191.543763 2202.24486,172.16049 C2187.35626,152.777217 2179.7715,129.742023 2179.7715,102.493074 C2179.7715,75.2441247 2187.35626,51.9280137 2202.24486,32.5447407 C2217.13346,13.1614677 2234.55031,3.61028973 2254.49542,3.61028973 C2274.72145,3.61028973 2292.70013,13.4423847 2308.15057,32.8256577 C2323.601,52.2089307 2331.46668,75.5250417 2331.46668,102.493074 C2331.46668,129.461106 2323.601,152.4963 2308.15057,171.879573 C2292.70013,191.262846 2274.72145,201.094941 2254.49542,201.094941 Z M2408.15702,200.533107 L2408.15702,6.70037673 L2442.42889,6.98129373 C2457.87933,7.26221073 2470.52059,10.9141317 2480.63361,18.4988907 C2490.4657,26.0836497 2495.52221,37.8821637 2495.52221,54.4562667 C2495.52221,71.3112867 2491.87029,82.8288837 2484.56644,88.7281407 C2477.2626,94.9083147 2466.02592,97.9984017 2450.57549,97.9984017 L2418.55095,97.9984017 L2503.10697,200.533107 L2531.7605,200.533107 L2445.7999,100.807572 L2461.25033,100.807572 C2478.9481,100.807572 2493.83671,96.0319827 2505.3543,86.7617217 C2516.8719,77.4914607 2522.77116,66.2547807 2522.77116,53.6135157 C2522.77116,39.2867487 2516.02915,27.4882347 2502.26422,17.9370567 C2488.49928,8.66679573 2471.08243,3.89120673 2449.45182,3.89120673 L2382.87449,3.89120673 L2382.87449,200.533107 L2408.15702,200.533107 Z M2744.69559,200.533107 L2744.69559,197.162103 L2642.4418,197.162103 L2642.4418,101.369406 L2734.58257,101.369406 L2734.58257,97.9984017 L2642.4418,97.9984017 L2642.4418,7.26221073 L2744.69559,7.26221073 L2744.69559,3.89120673 L2616.31652,3.89120673 L2616.31652,200.533107 L2744.69559,200.533107 Z M2813.52025,200.533107 L2813.52025,3.89120673 L2789.64231,3.89120673 L2789.64231,200.533107 L2813.52025,200.533107 Z M2942.18024,200.533107 L3034.0401,3.89120673 L2988.81246,3.89120673 C2997.23997,6.41945973 3003.70106,9.79046373 3008.19573,14.5660527 C3016.90416,24.1172307 3015.21866,33.9493257 3011.84765,43.7814207 L2953.97875,168.227652 L2874.19832,3.89120673 L2841.61195,3.89120673 L2942.18024,200.533107 Z M3127.02362,203.904111 C3154.83441,203.904111 3178.99327,193.791099 3200.06204,173.845992 C3221.13082,153.900885 3231.52475,130.02294 3231.52475,102.212157 C3231.52475,83.9525517 3226.74916,67.0975317 3216.91706,51.3661797 C3207.08497,35.6348277 3194.16279,23.2744797 3178.15052,14.2851357 C3162.13825,5.29579173 3145.00231,0.801119731 3127.02362,0.801119731 C3099.21284,0.801119731 3075.05398,10.6332147 3054.26612,30.5783217 C3033.19735,50.5234287 3022.80342,74.4013737 3022.80342,102.212157 C3022.80342,120.471762 3027.57901,137.607699 3037.4111,153.058134 C3046.96228,168.789486 3059.88446,181.149834 3075.89673,190.139178 C3091.909,199.409439 3108.76402,203.904111 3127.02362,203.904111 Z M3126.46179,201.094941 C3106.51668,201.094941 3089.09983,191.543763 3074.21123,172.16049 C3059.32263,152.777217 3051.73787,129.742023 3051.73787,102.493074 C3051.73787,75.2441247 3059.32263,51.9280137 3074.21123,32.5447407 C3089.09983,13.1614677 3106.51668,3.61028973 3126.46179,3.61028973 C3146.68781,3.61028973 3164.6665,13.4423847 3180.11694,32.8256577 C3195.56737,52.2089307 3203.43305,75.5250417 3203.43305,102.493074 C3203.43305,129.461106 3195.56737,152.4963 3180.11694,171.879573 C3164.6665,191.262846 3146.68781,201.094941 3126.46179,201.094941 Z M3280.12339,200.533107 L3280.12339,6.70037673 L3314.39526,6.98129373 C3329.8457,7.26221073 3342.48696,10.9141317 3352.59997,18.4988907 C3362.43207,26.0836497 3367.48858,37.8821637 3367.48858,54.4562667 C3367.48858,71.3112867 3363.83665,82.8288837 3356.53281,88.7281407 C3349.22897,94.9083147 3337.99229,97.9984017 3322.54186,97.9984017 L3290.51732,97.9984017 L3375.07333,200.533107 L3403.72687,200.533107 L3317.76627,100.807572 L3333.2167,100.807572 C3350.91447,100.807572 3365.80307,96.0319827 3377.32067,86.7617217 C3388.83827,77.4914607 3394.73752,66.2547807 3394.73752,53.6135157 C3394.73752,39.2867487 3387.99552,27.4882347 3374.23058,17.9370567 C3360.46565,8.66679573 3343.0488,3.89120673 3321.41819,3.89120673 L3254.84086,3.89120673 L3254.84086,200.533107 L3280.12339,200.533107 Z M3616.66195,200.533107 L3616.66195,197.162103 L3514.40817,197.162103 L3514.40817,101.369406 L3606.54894,101.369406 L3606.54894,97.9984017 L3514.40817,97.9984017 L3514.40817,7.26221073 L3616.66195,7.26221073 L3616.66195,3.89120673 L3488.28289,3.89120673 L3488.28289,200.533107 L3616.66195,200.533107 Z M3685.48662,200.533107 L3685.48662,3.89120673 L3661.60867,3.89120673 L3661.60867,200.533107 L3685.48662,200.533107 Z M3814.14661,200.533107 L3906.00646,3.89120673 L3860.77883,3.89120673 C3869.20634,6.41945973 3875.66743,9.79046373 3880.1621,14.5660527 C3888.87053,24.1172307 3887.18503,33.9493257 3883.81402,43.7814207 L3825.94512,168.227652 L3746.16469,3.89120673 L3713.57832,3.89120673 L3814.14661,200.533107 Z M3998.98999,203.904111 C4026.80077,203.904111 4050.95964,193.791099 4072.02841,173.845992 C4093.09719,153.900885 4103.49112,130.02294 4103.49112,102.212157 C4103.49112,83.9525517 4098.71553,67.0975317 4088.88343,51.3661797 C4079.05134,35.6348277 4066.12915,23.2744797 4050.11689,14.2851357 C4034.10462,5.29579173 4016.96868,0.801119731 3998.98999,0.801119731 C3971.17921,0.801119731 3947.02035,10.6332147 3926.23249,30.5783217 C3905.16371,50.5234287 3894.76978,74.4013737 3894.76978,102.212157 C3894.76978,120.471762 3899.54537,137.607699 3909.37747,153.058134 C3918.92865,168.789486 3931.85083,181.149834 3947.8631,190.139178 C3963.87537,199.409439 3980.73039,203.904111 3998.98999,203.904111 Z M3998.42816,201.094941 C3978.48305,201.094941 3961.0662,191.543763 3946.1776,172.16049 C3931.28899,152.777217 3923.70424,129.742023 3923.70424,102.493074 C3923.70424,75.2441247 3931.28899,51.9280137 3946.1776,32.5447407 C3961.0662,13.1614677 3978.48305,3.61028973 3998.42816,3.61028973 C4018.65418,3.61028973 4036.63287,13.4423847 4052.0833,32.8256577 C4067.53374,52.2089307 4075.39942,75.5250417 4075.39942,102.493074 C4075.39942,129.461106 4067.53374,152.4963 4052.0833,171.879573 C4036.63287,191.262846 4018.65418,201.094941 3998.42816,201.094941 Z M4152.08976,200.533107 L4152.08976,6.70037673 L4186.36163,6.98129373 C4201.81207,7.26221073 4214.45333,10.9141317 4224.56634,18.4988907 C4234.39844,26.0836497 4239.45494,37.8821637 4239.45494,54.4562667 C4239.45494,71.3112867 4235.80302,82.8288837 4228.49918,88.7281407 C4221.19534,94.9083147 4209.95866,97.9984017 4194.50822,97.9984017 L4162.48369,97.9984017 L4247.0397,200.533107 L4275.69324,200.533107 L4189.73263,100.807572 L4205.18307,100.807572 C4222.88084,100.807572 4237.76944,96.0319827 4249.28704,86.7617217 C4260.80464,77.4914607 4266.70389,66.2547807 4266.70389,53.6135157 C4266.70389,39.2867487 4259.96188,27.4882347 4246.19695,17.9370567 C4232.43202,8.66679573 4215.01516,3.89120673 4193.38456,3.89120673 L4126.80723,3.89120673 L4126.80723,200.533107 L4152.08976,200.533107 Z" id="EivorEivorEivorEivorEivor" fill="#FFFFFF" fill-rule="nonzero"></path>
    </g>
</svg>