<?xml version="1.0" encoding="UTF-8"?>
<svg width="5118px" height="260px" viewBox="0 0 5118 260" version="1.1" xmlns="http://www.w3.org/2000/svg" xmlns:xlink="http://www.w3.org/1999/xlink">
    <!-- Generator: Sketch 63.1 (92452) - https://sketch.com -->
    <title>LiveinT贸rshavnLiveinT贸rshavn</title>
    <desc>Created with Sketch.</desc>
    <g id="Page-1" stroke="none" stroke-width="1" fill="none" fill-rule="evenodd">
        <path d="M4215.82088,65.620156 C4231.859,54.64961 4250.41863,49.7611914 4271.18691,51.0024871 L4272.03008,51.0561682 C4300.82406,52.7494841 4322.18363,58.9490463 4336.1309,69.817278 L4337.11137,70.593702 L4337.11137,123.982942 L4334.38325,115.800741 C4328.53167,98.2506359 4321.57943,84.3498321 4313.59449,74.1610011 C4309.36979,69.3742753 4303.56106,65.3645445 4296.43587,62.4623385 C4288.9206,59.5106884 4282.46151,57.6019447 4277.08995,56.7356037 L4276.53815,56.6497006 L4268.1797,55.5353079 L4267.5245,55.520783 C4248.01387,55.1235747 4232.86343,60.039975 4222.3254,70.0820205 L4221.92236,70.4707801 L4221.53367,70.8548076 C4211.63025,80.7556021 4209.65018,91.9070617 4215.36799,104.972905 C4223.23533,123.144371 4245.00935,138.536096 4280.29405,150.725976 L4281.36742,151.094386 L4290.85533,154.164791 C4300.22392,156.719186 4309.57111,160.679862 4324.29643,168.32386 C4331.57235,172.240624 4337.90946,177.0642 4343.21381,182.66249 C4355.96553,196.867796 4361.21026,209.336725 4358.43691,225.971528 C4356.77573,235.105579 4352.44862,244.842555 4345.50592,255.263164 L4345.0173,255.991293 L4342.63341,259.518521 L4342.45855,255.264851 C4341.67301,236.155152 4336.39954,220.307225 4327.69017,209.369333 L4327.30934,208.896872 C4323.21416,203.711008 4317.16683,198.764499 4309.16104,194.072691 C4301.08127,189.337527 4293.00578,185.440047 4284.93452,182.379341 L4282.03194,181.28362 C4272.82181,177.822739 4263.40633,174.437979 4252.9765,170.888201 C4231.87138,164.037699 4215.69188,155.728922 4204.95683,146.3422 L4204.45762,145.90141 C4193.39967,136.300993 4188.50388,123.488936 4189.65166,107.140472 C4190.50279,90.9732963 4199.14615,77.2057279 4215.2622,66.0053579 L4215.82088,65.620156 Z M1584.66423,65.620156 C1600.70234,54.64961 1619.26198,49.7611914 1640.03026,51.0024871 L1640.87343,51.0561682 C1669.66741,52.7494841 1691.02697,58.9490463 1704.97425,69.817278 L1705.95472,70.593702 L1705.95472,123.982942 L1703.2266,115.800741 C1697.37502,98.2506359 1690.42278,84.3498321 1682.43784,74.1610011 C1678.21314,69.3742753 1672.40441,65.3645445 1665.27922,62.4623385 C1657.76394,59.5106884 1651.30486,57.6019447 1645.93329,56.7356037 L1645.3815,56.6497006 L1637.0237,55.5353079 L1636.36785,55.520783 C1616.85722,55.1235747 1601.70678,60.039975 1591.16875,70.0820205 L1590.76571,70.4707801 L1590.37701,70.8548076 C1580.4736,80.7556021 1578.49353,91.9070617 1584.21134,104.972905 C1592.07868,123.144371 1613.8527,138.536096 1649.1374,150.725976 L1650.21077,151.094386 L1659.69867,154.164791 C1669.06727,156.719186 1678.41446,160.679862 1693.13978,168.32386 C1700.41569,172.240624 1706.75281,177.0642 1712.05716,182.66249 C1724.80888,196.867796 1730.05361,209.336725 1727.28026,225.971528 C1725.61908,235.105579 1721.29197,244.842555 1714.34926,255.263164 L1713.86065,255.991293 L1711.47675,259.518521 L1711.3019,255.264851 C1710.51636,236.155152 1705.24288,220.307225 1696.53352,209.369333 L1696.15269,208.896872 C1692.05751,203.711008 1686.01018,198.764499 1678.00439,194.072691 C1669.92462,189.337527 1661.84913,185.440047 1653.77786,182.379341 C1643.63612,178.533491 1633.34756,174.81164 1621.81985,170.888201 C1600.71472,164.037699 1584.53523,155.728922 1573.80018,146.3422 L1573.30097,145.90141 C1562.24302,136.300993 1557.34723,123.488936 1558.49501,107.140472 C1559.34614,90.9732963 1567.9895,77.2057279 1584.10554,66.0053579 L1584.66423,65.620156 Z M3834.83969,76.9165568 C3857.86583,58.4436798 3884.05475,50.1906591 3913.35262,52.1813262 C3942.38075,54.4574407 3965.76813,66.433176 3983.42839,88.075516 C4001.02239,109.636656 4007.95306,134.709037 4004.2356,163.011018 C4000.27055,191.325359 3986.68836,214.714665 3963.55702,233.271947 C3940.71689,251.595604 3914.58121,259.734073 3885.60589,257.726355 C3856.91157,255.476416 3833.69069,243.746063 3815.80248,222.494555 L3815.26205,221.847656 C3797.56712,200.787837 3790.57636,175.997806 3794.32356,148.037571 L3794.4404,147.189321 C3798.13092,119.092014 3811.75391,95.4372877 3834.83969,76.9165568 Z M1203.68304,76.9165568 C1226.70918,58.4436798 1252.89809,50.1906591 1282.19596,52.1813262 C1311.2241,54.4574407 1334.61148,66.433176 1352.27174,88.075516 C1369.86574,109.636656 1376.79641,134.709037 1373.07895,163.011018 C1369.1139,191.325359 1355.53171,214.714665 1332.40037,233.271947 C1309.56023,251.595604 1283.42456,259.734073 1254.44924,257.726355 C1225.75492,255.476416 1202.53404,243.746063 1184.64583,222.494555 L1184.1054,221.847656 C1166.23173,200.575111 1159.27957,175.496617 1163.28375,147.189321 C1166.97427,119.092014 1180.59726,95.4372877 1203.68304,76.9165568 Z M2855.62663,55.2660859 L2891.37585,55.2660859 L2970.2457,217.685308 L3026.8357,96.0223079 L3026.97878,95.6042868 C3030.86588,84.0388745 3030.52143,76.4322504 3024.03098,68.9309675 L3023.74905,68.6095372 L3023.46759,68.2969729 C3019.40574,63.9823945 3013.51301,60.7266291 3005.35192,58.2046565 L3004.7029,58.007072 L2995.56387,55.2660859 L3052.52888,55.2660859 L2958.53321,256.426879 L2855.62663,55.2660859 Z M2088.21764,55.2660859 L2123.96687,55.2660859 L2202.8367,217.685308 L2259.4267,96.0223079 L2259.56979,95.6042868 C2263.45689,84.0388745 2263.11244,76.4322504 2256.62199,68.9309675 L2256.34006,68.6095372 L2256.0586,68.2969729 C2251.99675,63.9823945 2246.10402,60.7266291 2237.94293,58.2046565 L2237.29392,58.007072 L2228.15488,55.2660859 L2285.1199,55.2660859 L2191.12422,256.426879 L2088.21764,55.2660859 Z M4719.37429,55.2660859 L4755.12352,55.2660859 L4833.9937,217.685308 L4890.5837,96.0233079 L4890.72645,95.6042868 C4894.61354,84.0388745 4894.2691,76.4322504 4887.77864,68.9309675 L4887.49671,68.6095372 L4887.21526,68.2969729 C4883.1534,63.9823945 4877.26067,60.7266291 4869.09958,58.2046565 L4868.45057,58.007072 L4859.31153,55.2660859 L4916.27655,55.2660859 L4822.28087,256.426879 L4719.37429,55.2660859 Z M224.469978,55.2660859 L260.219202,55.2660859 L339.0907,217.686308 L395.6797,96.0223079 L395.822128,95.6042868 C399.709224,84.0388745 399.364778,76.4322504 392.874326,68.9309675 L392.592395,68.6095372 L392.310938,68.2969729 C388.249084,63.9823945 382.356355,60.7266291 374.195267,58.2046565 L373.54625,58.007072 L364.407214,55.2660859 L421.37223,55.2660859 L327.376556,256.426879 L224.469978,55.2660859 Z M3990.57199,103.33679 L3990.70685,103.649938 C3999.23046,123.680066 3997.00602,149.221225 3983.86292,174.141211 C3975.5843,189.83788 3963.90977,203.729045 3949.2219,215.306804 C3934.33788,227.039182 3918.11889,234.933181 3900.63826,238.879352 C3868.84863,246.252597 3839.18466,240.466357 3820.711,223.851087 L3821.15897,224.340682 C3838.09509,242.709467 3859.56464,252.875854 3885.8121,254.933988 C3914.07425,256.892233 3939.51493,248.97018 3961.80487,231.087921 C3984.38655,212.971612 3997.59789,190.220919 4001.46105,162.63454 C4004.28852,141.107961 4000.79928,121.558245 3990.9686,104.036575 L3990.57199,103.33679 Z M1359.41247,103.331781 L1359.5502,103.649938 C1368.07381,123.680066 1365.84937,149.221225 1352.70626,174.141211 C1344.42765,189.83788 1332.75312,203.729045 1318.06525,215.306804 C1303.44701,226.829675 1287.54106,234.650028 1270.41686,238.664174 L1269.48161,238.879352 C1237.69198,246.252597 1208.02801,240.466357 1189.55435,223.851087 L1190.00232,224.340682 C1206.93844,242.709467 1228.40799,252.875854 1254.65545,254.933988 C1282.9176,256.892233 1308.35828,248.97018 1330.64822,231.087921 C1353.2299,212.971612 1366.44124,190.220919 1370.3044,162.63454 C1373.16984,140.818882 1369.54777,121.033538 1359.41247,103.331781 Z M2007.65047,55.2660859 L2045.61255,55.2660859 L2138.48912,254.641595 L2106.74887,254.641595 L2076.1297,188.928308 L1981.2877,188.928308 L1950.66949,254.641595 L1943.64901,254.641595 L2025.1937,79.4203079 L2025.10598,79.239258 C2023.51392,76.0243818 2021.19876,72.4859124 2017.92496,68.1677943 L2017.12072,67.1162432 L2016.70457,66.5788029 C2014.80829,64.4302533 2013.17636,62.4742162 2011.74046,60.6587035 L2010.96518,59.6675322 C2010.84083,59.5067246 2010.71851,59.3476262 2010.59761,59.1895103 L2007.65047,55.2660859 Z M4411.26803,55.2660859 L4411.2677,149.341308 L4533.1857,149.341308 L4533.18603,55.2660859 L4561.5476,55.2660859 L4561.5476,254.641595 L4533.18603,254.641595 L4533.1857,155.511308 L4411.2637,155.511308 L4410.98317,254.641595 L4382.90645,254.641595 L4382.90645,55.2660859 L4411.26803,55.2660859 Z M1780.11137,55.2660859 L1780.1107,149.341308 L1902.0287,149.341308 L1902.02938,55.2660859 L1930.39095,55.2660859 L1930.39095,254.641595 L1902.02938,254.641595 L1902.0287,155.511308 L1780.1067,155.511308 L1779.82652,254.641595 L1751.7498,254.641595 L1751.7498,55.2660859 L1780.11137,55.2660859 Z M4638.80712,55.2660859 L4676.7692,55.2660859 L4769.64578,254.641595 L4737.90552,254.641595 L4707.2867,188.928308 L4612.4437,188.928308 L4581.82614,254.641595 L4574.80566,254.641595 L4656.3507,79.4203079 L4656.26263,79.239258 C4654.60689,75.8957867 4652.16904,72.2023171 4648.68413,67.6458486 L4648.27737,67.1162432 L4647.86122,66.5788029 C4646.13733,64.625576 4644.63191,62.8314504 4643.29363,61.1573664 L4642.89711,60.6587035 C4642.49244,60.1470477 4642.11697,59.6638581 4641.75426,59.1895103 L4640.48767,57.506228 L4638.80712,55.2660859 Z M3356.89807,55.2660859 L3403.48124,55.2660859 L3543.8687,212.503308 L3543.86888,55.2660859 L3549.47785,55.2660859 L3549.47785,254.641595 L3541.28125,254.641595 L3378.6927,76.8413079 L3378.69283,254.360773 L3372.52207,254.360773 L3372.5217,69.9103079 L3356.89807,55.2660859 Z M705.401718,55.2660859 L705.401718,254.641595 L678.725524,254.641595 L678.725524,55.2660859 L705.401718,55.2660859 Z M1159.33031,55.2660859 L1159.33031,61.4359518 L1087.1407,61.4353079 L1087.13994,254.641595 L1057.65478,254.641595 L1057.6557,61.4353079 L985.745297,61.4359518 L985.745297,55.2660859 L1159.33031,55.2660859 Z M3066.62589,55.2660859 L3198.42425,55.2660859 L3214.84485,91.7466624 L3209.14178,85.7097088 C3204.64615,80.9508947 3196.31358,75.7359458 3183.7378,69.7351872 C3171.80994,64.3148673 3157.72518,61.5456596 3141.47478,61.4391472 L3140.49716,61.4359518 L3095.5487,61.4353079 L3095.5487,149.341308 L3187.68327,149.341508 L3187.68327,155.511374 L3095.5487,155.511308 L3095.5487,248.471308 L3140.49716,248.47173 C3156.69669,248.47173 3170.59518,245.853313 3182.36315,240.530382 L3183.05293,240.214148 L3183.7378,239.891672 C3195.85045,234.387378 3204.25194,229.234218 3208.88363,224.467381 L3209.14178,224.197973 L3214.84485,218.161019 L3198.42425,254.641595 L3066.62589,254.641595 L3066.62589,55.2660859 Z M3790.48696,55.2660859 L3790.48696,61.4359518 L3718.2957,61.4353079 L3718.29659,254.641595 L3688.81143,254.641595 L3688.8107,61.4353079 L3616.90195,61.4359518 L3616.90195,55.2660859 L3790.48696,55.2660859 Z M29.5649611,55.2660859 L29.5656995,248.471308 L131.249461,248.47173 L131.249461,254.641595 L0.360698722,254.641595 L0.360698722,55.2660859 L29.5649611,55.2660859 Z M2660.72161,55.2660859 L2660.7207,248.471308 L2762.40611,248.47173 L2762.40611,254.641595 L2631.51735,254.641595 L2631.51735,55.2660859 L2660.72161,55.2660859 Z M725.741419,55.2660859 L772.324592,55.2660859 L912.7127,212.503308 L912.712231,55.2660859 L918.321195,55.2660859 L918.321195,254.641595 L910.124599,254.641595 L747.5367,76.8403079 L747.536179,254.360773 L741.365422,254.360773 L741.3657,69.9093079 L725.741419,55.2660859 Z M200.069081,55.2660859 L200.069081,254.641595 L173.392886,254.641595 L173.392886,55.2660859 L200.069081,55.2660859 Z M4924.58092,55.2660859 L4971.1641,55.2660859 L5111.5517,212.503308 L5111.55173,55.2660859 L5117.1607,55.2660859 L5117.1607,254.641595 L5108.9641,254.641595 L4946.3747,76.8403079 L4946.37568,254.360773 L4940.20493,254.360773 L4940.2047,69.9103079 L4924.58092,55.2660859 Z M3336.55837,55.2660859 L3336.55837,254.641595 L3309.88218,254.641595 L3309.88218,55.2660859 L3336.55837,55.2660859 Z M1468.03995,55.2660859 C1489.73163,55.2660859 1507.48698,60.0232613 1521.64644,69.5568716 C1535.74719,79.3384789 1542.75391,91.5428299 1542.75391,106.371608 C1542.75391,119.456444 1536.64628,131.079938 1524.816,140.599352 C1513.19074,149.953798 1498.26024,154.801632 1480.65218,154.946389 L1479.8376,154.94973 L1467.4437,154.949308 L1553.3982,254.641595 L1521.03115,254.641595 L1434.17168,149.341508 L1469.16353,149.341508 C1484.276,149.341508 1495.21855,146.35179 1502.27247,140.385146 C1509.16404,134.820348 1512.70696,123.717595 1512.70696,107.214074 C1512.70696,91.2067266 1507.91931,79.7463744 1498.37959,72.3889446 C1488.81767,65.2193975 1476.79306,61.5597151 1461.78501,61.1722091 L1461.00607,61.1550826 L1428.1487,60.8853079 L1428.14818,254.641595 L1400.0675,254.641595 L1400.0675,55.2660859 L1468.03995,55.2660859 Z M4099.1966,55.2660859 C4120.88828,55.2660859 4138.64363,60.0232613 4152.8031,69.5568716 C4166.90385,79.3384789 4173.91056,91.5428299 4173.91056,106.371608 C4173.91056,119.456444 4167.80293,131.079938 4155.97266,140.599352 C4144.34739,149.953798 4129.41689,154.801632 4111.80883,154.946389 L4110.99425,154.94973 L4098.5997,154.949308 L4184.55485,254.641595 L4152.1878,254.641595 L4065.32833,149.341508 L4100.32018,149.341508 C4115.43266,149.341508 4126.3752,146.35179 4133.42912,140.385146 C4140.32069,134.820348 4143.86361,123.717595 4143.86361,107.214074 C4143.86361,91.2067266 4139.07596,79.7463744 4129.53624,72.3889446 C4119.97432,65.2193975 4107.94971,61.5597151 4092.94166,61.1722091 L4092.16272,61.1550826 L4059.3047,60.8853079 L4059.30483,254.641595 L4031.22415,254.641595 L4031.22415,55.2660859 L4099.1966,55.2660859 Z M2293.42427,55.2660859 L2340.00744,55.2660859 L2480.3947,212.503308 L2480.39508,55.2660859 L2486.00405,55.2660859 L2486.00405,254.641595 L2477.80745,254.641595 L2315.2187,76.8403079 L2315.21903,254.360773 L2309.04827,254.360773 L2309.0477,69.9093079 L2293.42427,55.2660859 Z M435.469234,55.2660859 L567.2676,55.2660859 L583.6882,91.7466624 L577.985125,85.7097088 C573.489501,80.9508947 565.156926,75.7359458 552.58115,69.7351872 C540.653293,64.3148673 526.568532,61.5456596 510.318131,61.4391472 L509.340508,61.4359518 L464.3927,61.4353079 L464.3927,149.341308 L556.526622,149.341508 L556.526622,155.511374 L464.3927,155.511308 L464.3927,248.471308 L509.340508,248.47173 C525.540039,248.47173 539.438528,245.853313 551.206502,240.530382 L551.896279,240.214148 L552.58115,239.891672 C564.693799,234.387378 573.095284,229.234218 577.72698,224.467381 L577.985125,224.197973 L583.6882,218.161019 L567.2676,254.641595 L435.469234,254.641595 L435.469234,55.2660859 Z M2831.22573,55.2660859 L2831.22573,254.641595 L2804.54954,254.641595 L2804.54954,55.2660859 L2831.22573,55.2660859 Z M1576.75134,185.42691 L1579.50952,196.456708 C1583.90697,214.041867 1590.97502,228.192668 1600.84757,239.083606 L1601.74216,240.056277 L1601.74216,254.561451 L1599.93997,254.020937 C1591.80251,251.580346 1584.59708,248.334654 1578.12968,244.221544 L1577.38671,243.743101 L1576.75134,243.328841 L1576.75134,185.42691 Z M4207.90799,185.42691 L4210.66617,196.456708 C4215.06362,214.041867 4222.13167,228.192668 4232.00422,239.083606 L4232.52642,239.653804 L4232.89881,240.056277 L4232.89881,254.561451 L4231.09662,254.020937 C4222.95916,251.580346 4215.75373,248.334654 4209.28633,244.221544 L4208.54336,243.743101 L4207.90799,243.328841 L4207.90799,185.42691 Z M1777.3107,58.0653079 L1754.5507,58.0653079 L1754.5507,251.841308 L1777.0337,251.841308 L1777.31534,152.711374 L1904.82938,152.711374 L1904.8287,251.841308 L1927.5907,251.841308 L1927.5907,58.0653079 L1904.8287,58.0653079 L1904.82938,152.141508 L1777.31137,152.141508 L1777.3107,58.0653079 Z M26.7656995,58.0653079 L3.16069951,58.0653079 L3.16069951,251.841308 L128.4497,251.841308 L128.4497,251.271308 L26.7649611,251.27173 L26.7656995,58.0653079 Z M197.2697,58.0653079 L176.1937,58.0653079 L176.1937,251.841308 L197.2697,251.841308 L197.2697,58.0653079 Z M3196.6127,58.0653079 L3069.4257,58.0653079 L3069.4257,251.841308 L3196.6127,251.841308 L3206.2347,230.466308 L3206.21412,230.482645 C3201.41509,234.103957 3194.81139,237.850339 3186.40992,241.745886 L3185.61701,242.111532 L3184.91989,242.429778 C3172.71435,248.253611 3158.27197,251.16298 3141.45179,251.268737 L3140.49716,251.27173 L3092.74925,251.27173 L3092.74925,152.711374 L3184.8827,152.711308 L3184.8827,152.141308 L3092.74925,152.141508 L3092.74925,58.6359518 L3140.49716,58.6359518 C3157.54096,58.6359518 3172.34373,61.4818857 3184.91989,67.1970811 L3186.47641,67.9461587 C3194.66336,71.9208044 3201.02209,75.5712845 3205.69736,79.0318452 L3206.2307,79.4313079 L3196.6127,58.0653079 Z M3787.6867,58.0653079 L3619.7017,58.0653079 L3619.7017,58.6353079 L3691.61143,58.6359518 L3691.6107,251.841308 L3715.4957,251.841308 L3715.49659,58.6359518 L3787.6867,58.6353079 L3787.6867,58.0653079 Z M3402.2267,58.0653079 L3363.9787,58.0653079 L3375.32207,68.6964485 L3375.3217,251.560308 L3375.8927,251.560308 L3375.89283,69.6290037 L3542.5147,251.841308 L3546.6777,251.841308 L3546.6777,58.0653079 L3546.6687,58.0653079 L3546.66888,219.843171 L3402.2267,58.0653079 Z M4969.9097,58.0653079 L4931.6617,58.0653079 L4943.00493,68.6964485 L4943.0047,251.560308 L4943.5747,251.560308 L4943.57568,69.6290037 L5110.1977,251.841308 L5114.3597,251.841308 L5114.3597,58.0653079 L5114.3517,58.0653079 L5114.35173,219.843171 L4969.9097,58.0653079 Z M2043.8277,58.0653079 L2013.2657,58.0653079 L2013.9366,58.9217613 L2014.65595,59.8223511 C2015.8838,61.3447214 2017.26106,62.9786095 2018.8592,64.7927365 L2019.71582,65.9026056 C2023.48242,70.8236643 2026.06727,74.7710588 2027.82014,78.4166541 L2028.2875,79.411792 L1948.0397,251.841308 L1948.8847,251.841308 L1979.5028,186.129211 L2077.91556,186.129211 L2108.5327,251.841308 L2134.0957,251.841308 L2043.8277,58.0653079 Z M3333.7577,58.0653079 L3312.6817,58.0653079 L3312.6817,251.841308 L3333.7577,251.841308 L3333.7577,58.0653079 Z M4674.9847,58.0653079 L4644.4227,58.0653079 L4645.09325,58.9217613 L4645.81261,59.8223511 C4647.04046,61.3447214 4648.41771,62.9786095 4650.01585,64.7927365 C4654.25156,70.2372092 4657.09408,74.5010147 4658.97679,78.4166541 L4659.44415,79.411792 L4579.1957,251.841308 L4580.0417,251.841308 L4610.65945,186.129211 L4709.07221,186.129211 L4739.6897,251.841308 L4765.2527,251.841308 L4674.9847,58.0653079 Z M702.6027,58.0653079 L681.5257,58.0653079 L681.5257,251.841308 L702.6027,251.841308 L702.6027,58.0653079 Z M1425.3487,58.0653079 L1402.8677,58.0653079 L1402.8677,251.841308 L1425.3487,251.841308 L1425.3487,58.0653079 Z M2338.7527,58.0653079 L2300.5047,58.0653079 L2311.84827,68.6964485 L2311.8477,251.560308 L2312.4187,251.560308 L2312.41903,69.6290037 L2479.0407,251.841308 L2483.2037,251.841308 L2483.2037,58.0653079 L2483.1947,58.0653079 L2483.19508,219.843171 L2338.7527,58.0653079 Z M565.4577,58.0653079 L438.2697,58.0653079 L438.2697,251.841308 L565.4577,251.841308 L575.0797,230.465308 L575.05747,230.482645 C570.258443,234.103957 563.654735,237.850339 555.253263,241.745886 L554.460359,242.111532 L553.763239,242.429778 C541.557696,248.253611 527.11532,251.16298 510.295134,251.268737 L509.340508,251.27173 L461.5926,251.27173 L461.5926,152.711374 L553.7267,152.711308 L553.7267,152.141308 L461.5926,152.141508 L461.5926,58.6359518 L509.340508,58.6359518 C526.384305,58.6359518 541.187074,61.4818857 553.763239,67.1970811 L555.319753,67.9461587 C563.506712,71.9208044 569.865438,75.5712845 574.540705,79.0318452 L575.0757,79.4313079 L565.4577,58.0653079 Z M4099.1966,58.0653079 L4056.8577,58.0653079 L4092.19963,58.3553608 C4108.13917,58.6450941 4120.98278,62.475874 4131.23108,70.1602336 C4141.52913,78.1023412 4146.66361,90.3929159 4146.66361,107.214074 C4146.66361,124.252242 4142.97214,136.044712 4135.5132,142.296135 L4135.21283,142.543236 C4127.72279,148.879285 4116.40227,152.040364 4101.06543,152.139119 L4100.32018,152.141508 L4071.2677,152.141308 L4153.5077,251.841308 L4178.4437,251.841308 L4092.48934,152.14973 L4110.99425,152.14973 C4128.34508,152.14973 4142.93561,147.495887 4154.21731,138.417892 C4165.41438,129.408001 4171.11056,118.567533 4171.11056,106.371608 C4171.11056,92.504414 4164.58453,81.1373253 4151.22323,71.8685012 C4137.77349,62.8129108 4120.86596,58.2027134 4100.12774,58.0690778 L4099.1966,58.0653079 Z M2657.9207,58.0653079 L2634.3167,58.0653079 L2634.3167,251.841308 L2759.6057,251.841308 L2759.6057,251.271308 L2657.92161,251.27173 L2657.9207,58.0653079 Z M4408.4677,58.0653079 L4385.7057,58.0653079 L4385.7057,251.841308 L4408.1907,251.841308 L4408.47199,152.711374 L4535.98603,152.711374 L4535.9857,251.841308 L4558.7467,251.841308 L4558.7467,58.0653079 L4535.9857,58.0653079 L4535.98603,152.141508 L4408.46803,152.141508 L4408.4677,58.0653079 Z M2828.4257,58.0653079 L2807.3487,58.0653079 L2807.3487,251.841308 L2828.4257,251.841308 L2828.4257,58.0653079 Z M771.0707,58.0653079 L732.8237,58.0653079 L744.165422,68.6964485 L744.1657,251.560308 L744.7367,251.560308 L744.736179,69.6290037 L911.3587,251.841308 L915.5217,251.841308 L915.5217,58.0653079 L915.5127,58.0653079 L915.512231,219.843171 L771.0707,58.0653079 Z M4056.5047,58.0653079 L4034.0237,58.0653079 L4034.0237,251.841308 L4056.5047,251.841308 L4056.5047,58.0653079 Z M1156.5307,58.0653079 L988.5457,58.0653079 L988.5457,58.6353079 L1060.45478,58.6359518 L1060.4557,251.841308 L1084.3407,251.841308 L1084.33994,58.6359518 L1156.5307,58.6353079 L1156.5307,58.0653079 Z M1468.03995,58.0653079 L1425.7017,58.0653079 L1461.04298,58.3553608 C1476.98252,58.6450941 1489.82612,62.475874 1500.07443,70.1602336 C1510.37248,78.1023412 1515.50696,90.3929159 1515.50696,107.214074 C1515.50696,124.479418 1511.71639,136.358245 1504.05618,142.543236 C1496.56614,148.879285 1485.24562,152.040364 1469.90877,152.139119 L1469.16353,152.141508 L1440.1117,152.141308 L1522.3517,251.841308 L1547.2877,251.841308 L1461.33269,152.14973 L1479.8376,152.14973 C1497.18843,152.14973 1511.77896,147.495887 1523.06066,138.417892 C1534.25773,129.408001 1539.95391,118.567533 1539.95391,106.371608 C1539.95391,92.504414 1533.42788,81.1373253 1520.06657,71.8685012 C1506.61684,62.8129108 1489.70931,58.2027134 1468.97109,58.0690778 L1468.03995,58.0653079 Z M1599.3917,60.6003079 L1599.02674,60.7622291 C1594.59958,62.7417185 1590.33779,65.1316643 1586.24506,67.9312111 C1570.4494,78.7359103 1562.10292,91.8678868 1561.28964,107.312104 C1560.2146,122.627354 1564.64539,134.464242 1574.73824,143.43711 L1575.15051,143.799307 C1585.56827,153.088365 1601.58935,161.377786 1622.70314,168.231247 L1625.97802,169.351777 C1636.24596,172.884015 1645.56892,176.271865 1654.77067,179.761261 C1662.99139,182.878643 1671.2079,186.844183 1679.42012,191.656973 C1687.46261,196.37029 1693.64543,201.372761 1697.94997,206.662439 L1698.33611,207.14411 C1706.75547,217.46188 1712.14741,231.994749 1713.72306,249.399681 L1713.7952,250.230653 L1713.8477,250.884308 L1714.26504,250.212958 C1719.39566,241.90516 1722.73446,234.102908 1724.26871,226.783882 L1724.40726,226.099138 L1724.52191,225.490806 C1727.12837,209.856148 1722.21089,198.165234 1709.99913,184.560677 C1704.92689,179.208063 1698.82823,174.565987 1691.83117,170.799157 L1690.37026,170.043846 C1677.14436,163.234237 1668.42416,159.539309 1659.83612,157.107866 L1658.89956,156.847541 L1649.32808,153.751521 C1612.7161,141.267015 1589.96944,125.319956 1581.64401,106.090412 C1575.47094,91.9842521 1577.67006,79.5991286 1588.39738,68.8746469 C1591.38487,65.8879415 1594.73172,63.3119263 1598.42932,61.1490172 L1599.17351,60.7219442 L1599.3917,60.6003079 Z M4230.5467,60.6003079 L4230.18339,60.7622291 C4225.75623,62.7417185 4221.49444,65.1316643 4217.40171,67.9312111 C4201.60605,78.7359103 4193.25957,91.8678868 4192.44629,107.312104 C4191.37125,122.627354 4195.80204,134.464242 4205.89489,143.43711 L4206.30716,143.799307 C4216.72492,153.088365 4232.74601,161.377786 4253.85979,168.231247 L4257.13467,169.351777 C4267.40261,172.884015 4276.72557,176.271865 4285.92732,179.761261 C4294.14804,182.878643 4302.36455,186.844183 4310.57677,191.656973 C4318.61926,196.37029 4324.80208,201.372761 4329.10662,206.662439 L4329.49276,207.14411 C4337.91212,217.46188 4343.30407,231.994749 4344.87971,249.399681 L4344.95186,250.230653 L4345.0037,250.883308 L4345.42169,250.212958 C4350.55231,241.90516 4353.89111,234.102908 4355.42536,226.783882 L4355.56391,226.099138 L4355.67856,225.490806 C4358.28503,209.856148 4353.36755,198.165234 4341.15579,184.560677 C4336.08355,179.208063 4329.98488,174.565987 4322.98782,170.799157 L4321.52691,170.043846 C4308.30102,163.234237 4299.58081,159.539309 4290.99277,157.107866 L4290.05621,156.847541 L4280.48473,153.751521 C4243.87275,141.267015 4221.12609,125.319956 4212.80066,106.090412 C4206.62759,91.9842521 4208.82671,79.5991286 4219.55403,68.8746469 C4222.54152,65.8879415 4225.88837,63.3119263 4229.58597,61.1490172 L4230.33016,60.7219442 L4230.5467,60.6003079 Z M1579.5517,206.693308 L1579.5517,241.805308 L1579.66115,241.877225 C1585.15109,245.365189 1591.20041,248.210447 1597.94573,250.454416 L1598.9427,250.779308 L1598.9427,241.148308 L1598.78398,240.976184 C1590.69655,232.058309 1584.44769,221.06026 1579.96007,207.915172 L1579.65683,207.015588 L1579.5517,206.693308 Z M4210.7077,206.695308 L4210.7077,241.805308 L4210.8178,241.877225 C4216.30774,245.365189 4222.35706,248.210447 4229.10238,250.454416 L4230.0987,250.779308 L4230.0987,241.149308 L4229.94063,240.976184 C4221.8532,232.058309 4215.60434,221.06026 4211.11672,207.915172 L4210.81348,207.015588 L4210.7077,206.695308 Z M2889.6227,58.0653079 L2860.2037,58.0653079 L2958.4187,250.056308 L3048.1297,58.0653079 L3013.1007,58.0653079 L3013.29006,58.1475949 C3017.99005,60.2116087 3021.78669,62.6753036 3024.79584,65.6505042 L3025.18388,66.0414838 L3025.52136,66.3939363 C3033.28867,74.9106734 3033.90588,83.5214562 3029.78887,96.027262 L3029.46288,96.9969936 L3029.408,97.1332739 L2970.30115,224.208081 L2889.6227,58.0653079 Z M2122.2137,58.0653079 L2092.7947,58.0653079 L2191.0097,250.056308 L2280.7207,58.0653079 L2245.6917,58.0653079 L2245.88108,58.1475949 C2250.58106,60.2116087 2254.37771,62.6753036 2257.38686,65.6505042 L2257.7749,66.0414838 L2258.11237,66.3939363 C2265.87968,74.9106734 2266.49689,83.5214562 2262.37989,96.027262 L2262.0539,96.9969936 L2261.99901,97.1332739 L2202.89217,224.208081 L2122.2137,58.0653079 Z M258.4667,58.0653079 L229.0477,58.0653079 L327.2637,250.055308 L416.9737,58.0653079 L381.9447,58.0653079 L382.133413,58.1475949 C386.833395,60.2116087 390.630043,62.6753036 393.639191,65.6505042 L394.027232,66.0414838 L394.364705,66.3939363 C402.132019,74.9106734 402.749227,83.5214562 398.632222,96.027262 L398.306232,96.9969936 L398.251345,97.1332739 L339.144502,224.208081 L258.4667,58.0653079 Z M4753.3697,58.0653079 L4723.9507,58.0653079 L4822.1667,250.055308 L4911.8777,58.0653079 L4876.8487,58.0653079 L4877.03773,58.1475949 C4881.73771,60.2116087 4885.53436,62.6753036 4888.54351,65.6505042 L4888.93155,66.0414838 L4889.26902,66.3939363 C4897.13592,75.0198623 4897.6682,83.742261 4893.37586,96.5101831 L4893.21055,96.9969936 L4893.15566,97.1332739 L4834.04882,224.208081 L4753.3697,58.0653079 Z M3924.52619,69.2981779 C3900.05996,70.122664 3876.4301,78.2931679 3853.06175,94.0495417 L3852.22727,94.615495 C3837.31019,104.647974 3825.5289,117.534681 3816.71076,133.175624 C3808.13993,148.377914 3803.97396,163.579701 3804.25065,178.516974 C3804.53063,193.631763 3808.77236,206.148417 3817.12721,216.117693 C3833.85737,236.133739 3865.00867,243.965622 3898.98327,236.384376 L3900.01365,236.14992 C3917.08713,232.295639 3932.92653,224.58639 3947.48855,213.107827 C3961.87235,201.769756 3973.29238,188.181411 3981.38626,172.834995 C3997.16574,142.916317 3996.72782,112.318233 3980.63123,92.1428322 L3980.14786,91.5457262 C3967.21654,76.1422706 3948.79176,68.7469175 3924.52619,69.2981779 Z M1293.36953,69.2981779 C1268.90331,70.122664 1245.27345,78.2931679 1221.90509,94.0495417 L1221.07062,94.615495 C1206.15353,104.647974 1194.37225,117.534681 1185.55411,133.175624 C1176.98328,148.377914 1172.81731,163.579701 1173.094,178.516974 C1173.37397,193.631763 1177.61571,206.148417 1185.97055,216.117693 C1202.70071,236.133739 1233.85202,243.965622 1267.82662,236.384376 L1268.857,236.14992 C1285.93047,232.295639 1301.76988,224.58639 1316.3319,213.107827 C1330.7157,201.769756 1342.13573,188.181411 1350.22961,172.834995 C1366.00909,142.916317 1365.57117,112.318233 1349.47458,92.1428322 L1348.98201,91.5346582 L1348.59767,91.081406 C1335.68708,75.9936803 1317.39001,68.7524858 1293.36953,69.2981779 Z M1281.99162,54.9738219 C1253.4103,53.0319151 1227.91428,61.0665794 1205.43519,79.1005828 C1183.1303,96.9948376 1169.92101,119.722868 1166.16883,146.74748 L1166.05803,147.567723 C1163.11305,168.387431 1166.24014,187.342603 1175.44149,204.281033 C1172.17374,196.670166 1170.47093,188.094882 1170.29448,178.56883 C1170.00816,163.111549 1174.30773,147.422257 1183.11504,131.800512 C1191.98371,116.069939 1203.79402,103.043811 1218.68507,92.8504522 L1219.50036,92.2972609 C1243.55661,75.8867492 1267.96636,67.3526489 1293.29058,66.4993334 C1312.6216,66.0601082 1328.48345,70.5448723 1340.92498,79.9861009 C1325.10718,65.1465693 1305.47634,56.8153371 1281.99162,54.9738219 Z M3913.14828,54.9738219 C3884.56695,53.0319151 3859.07093,61.0665794 3836.59184,79.1005828 C3814.28695,96.9948376 3801.07766,119.722868 3797.32549,146.74748 L3797.21468,147.567723 C3794.2697,168.387431 3797.39679,187.342603 3806.59814,204.281033 C3803.33039,196.670166 3801.62758,188.094882 3801.45113,178.56883 C3801.16481,163.111549 3805.46438,147.422257 3814.27169,131.800512 C3823.14036,116.069939 3834.95067,103.043811 3849.84172,92.8504522 L3850.65702,92.2972609 C3874.71326,75.8867492 3899.12301,67.3526489 3924.44723,66.4993334 C3943.78085,66.0600492 3959.64437,70.5460776 3972.08664,79.9899067 C3956.26724,65.1480148 3936.63503,56.8154968 3913.14828,54.9738219 Z M4611.04444,185.559345 L4659.86202,80.305888 L4708.97368,185.559345 L4611.04444,185.559345 Z M1979.88779,185.559345 L2028.70537,80.305888 L2077.81703,185.559345 L1979.88779,185.559345 Z M2028.7127,86.9433079 L1984.2727,182.759308 L2073.4207,182.759308 L2028.7127,86.9433079 Z M4659.8697,86.9433079 L4615.4297,182.759308 L4704.5777,182.759308 L4659.8697,86.9433079 Z M1649.75145,54.5577407 L1649.2497,54.5093079 L1649.34734,54.5295185 C1654.28903,55.580477 1659.94146,57.3577213 1666.31911,59.8626623 C1673.84987,62.9299368 1680.01781,67.187626 1684.58926,72.3708174 C1691.30458,80.9363815 1697.2507,91.9187507 1702.43613,105.317946 L1702.81419,106.302688 L1703.1557,107.205308 L1703.1557,71.9493079 L1702.79766,71.6747908 C1691.00908,62.687448 1673.64782,57.019688 1650.68543,54.6519233 L1649.75145,54.5577407 Z M4280.9081,54.5577407 L4280.4057,54.5093079 L4280.50399,54.5295185 C4285.44568,55.580477 4291.09811,57.3577213 4297.47577,59.8626623 C4305.00652,62.9299368 4311.17446,67.187626 4315.74591,72.3708174 C4322.46124,80.9363815 4328.40735,91.9187507 4333.59278,105.317946 L4333.97085,106.302688 L4334.3107,107.203308 L4334.3107,71.9493079 L4333.95431,71.6747908 C4322.16573,62.687448 4304.80447,57.019688 4281.84208,54.6519233 L4280.9081,54.5577407 Z M3960.93333,0.37171311 L3962.41114,2.7344759 L3915.69887,38.6792634 L3882.58643,39.3835971 L3960.93333,0.37171311 Z M1329.77668,0.37171311 L1331.25449,2.7344759 L1284.54222,38.6792634 L1251.42978,39.3835971 L1329.77668,0.37171311 Z M3949.2937,9.29430793 L3895.0217,36.3183079 L3914.7187,35.8993079 L3949.2937,9.29430793 Z M1318.1397,9.29330793 L1263.8657,36.3183079 L1283.5637,35.8993079 L1318.1397,9.29330793 Z" id="LiveinT贸rshavnLiveinT贸rshavn" fill="#FFFFFF" fill-rule="nonzero"></path>
    </g>
</svg>